<svg width="1080" height="1080" viewBox="0 0 1080 1080" fill="none" xmlns="http://www.w3.org/2000/svg">
<rect width="1080" height="1080" fill="url(#paint0_radial)"/>
<circle cx="517.5" cy="520.5" r="398.5" fill="#FFFD82"/>
<rect y="813" width="1080" height="267" fill="#FF9B71" fill-opacity="0.8"/>
<path d="M693.796 474.723L660.033 510.534H419.541C380.92 469.967 352.433 442.432 350.237 427.402C328.861 402.428 326.488 392.896 365.638 396.068C352.258 374.922 344.149 362.98 338.982 342.992C314.278 307.073 318.116 298.856 365.638 311.657H427.241C412.388 295.954 407.988 285.565 419.541 259.221C408.286 234.281 435.357 253.338 459.228 267.534C459.228 267.534 451.668 218.059 471.667 210.621C486.378 205.149 509.238 224.936 509.238 224.936C509.238 152.675 568.219 140.278 575.58 224.936C592.624 215.379 605.131 210.704 615.607 210.621C626.959 220.762 627.909 235.853 626.861 267.534L654.109 250.907C672.086 240.48 671.647 254.805 671.88 278.405C675.933 291.181 670.623 301.363 660.033 319.971C681.658 311.585 695.56 310.642 721.637 311.657C755.852 306.766 758.504 312.135 752.438 327.005C744.944 352.863 736.08 368.504 721.637 396.068C756.93 392.729 752.163 401.521 738.222 420.368C734.816 438.795 721.716 451.373 693.796 474.723Z" fill="#1B998B"/>
<path d="M463.676 505.878C454.653 485.998 447.088 468.937 440.257 452.668M401.819 346.914C407.977 366.18 413.541 382.755 419.042 398.128M440.257 452.668L463.676 411.431M440.257 452.668C432.603 434.442 425.871 417.212 419.042 398.128M419.042 398.128L378.54 370.193M530.188 494.571C530.231 463.315 528.872 436.676 526.559 411.431M507.574 271.089C510.932 294.97 514.195 316.184 517.149 336.272M568.765 358.221L526.559 411.431M526.559 411.431C524.235 386.06 520.947 362.098 517.149 336.272M517.149 336.272L474.983 291.708M606.012 505.878C615.592 485.919 623.665 468.773 630.717 452.668M666.539 346.914C661.787 366.011 657.044 382.544 651.869 398.128M692.478 370.193L651.869 398.128M651.869 398.128C645.687 416.745 638.888 434.007 630.717 452.668M630.717 452.668L606.012 411.431" stroke="#2D3047" stroke-width="7" stroke-linecap="round" stroke-linejoin="round"/>
<path d="M616.782 936.878C552.367 949.185 516.247 949.603 451.832 936.878V895.64C325.458 825.137 300.183 632.252 437.864 557.093L396.626 497.231H678.639L630.085 557.093C737.835 604.981 779.072 817.821 616.782 895.64V936.878Z" fill="#ED217C"/>
<path d="M343.5 946.5H171C176.789 934.574 183.762 929.705 203 924.5C175.241 911.813 161.659 902.288 150 870H367C357.475 893.962 343.629 905.458 312.5 924.5C329.748 929.379 335.283 935.1 343.5 946.5Z" fill="#2D3047"/>
<path d="M345.809 870C278.706 869.383 241.51 869.404 175.809 870L153.309 835C144.979 809.429 142.243 794.365 153.309 761.5C160.747 761.954 168.039 767.444 180.309 776C177.147 761.395 175.206 753.081 182.809 746.5C194.341 744.215 202.647 747.23 221.309 761.5C232.91 736.848 239.682 723.702 258.809 718C277.131 721.429 285.099 734.143 298.309 761.5C314.647 750.14 329.809 739 334.809 746.5C341.071 743.32 341.476 752.348 339.309 778.5L364.309 761.5C377.051 791.483 376.809 824.5 345.809 870Z" fill="#1B998B"/>
<path d="M853.98 838.178L730.007 831.183L731.092 821.242C719.055 801.727 712.802 790.645 709.678 768.608C708.402 756.51 709.895 753.817 719.05 761.08L747.922 786.866C742.406 746.79 740.495 726.282 752.256 714.911L775.47 755.671C790.901 719.888 799.688 700.447 821.122 692.251C824.856 716.781 824.41 730.138 821.958 753.704C842.789 737.552 854.367 729.405 873.536 728.151L854.807 779.924C876.686 772.285 888.89 768.287 908.679 770.213C898.896 789.079 883.638 806.136 853.98 838.178Z" fill="#1B998B"/>
<path d="M879.116 901.87C817.457 924.403 782.858 925.064 721.116 901.87L755.616 858.87L702.116 812.37C778.071 821.113 820.661 821.714 896.616 812.37L838.116 858.87L879.116 901.87Z" fill="#2D3047"/>
<defs>
<radialGradient id="paint0_radial" cx="0" cy="0" r="1" gradientUnits="userSpaceOnUse" gradientTransform="translate(540 540) rotate(90) scale(540)">
<stop offset="0.731322" stop-color="#FFFD82"/>
<stop offset="1" stop-color="#FF9B71"/>
</radialGradient>
</defs>
</svg>
